<svg width="120" height="87" viewBox="0 0 120 87" fill="none" xmlns="http://www.w3.org/2000/svg">
<path fill-rule="evenodd" clip-rule="evenodd" d="M0 0H120V67.7268C120 70.2507 118.119 72.3788 115.614 72.6889L0 87V0Z" fill="white"/>
<mask id="mask0" mask-type="alpha" maskUnits="userSpaceOnUse" x="15" y="15" width="90" height="47">
<path fill-rule="evenodd" clip-rule="evenodd" d="M15 15.4395H104.961V61.9235H15V15.4395Z" fill="white"/>
</mask>
<g mask="url(#mask0)">
<path fill-rule="evenodd" clip-rule="evenodd" d="M103.425 18.3151L70.2004 22.5152V16.8067C70.2004 16.8067 70.2004 15.2663 68.6647 15.4556L16.5357 21.8669C16.5357 21.8669 15 22.0562 15 23.5971V57.8105C15 57.8105 15 59.3518 16.5357 59.1625L52.0712 54.7919V60.5602C52.0712 60.5602 52.0712 62.1011 53.606 61.9065L103.425 55.6085C103.425 55.6085 104.961 55.4144 104.961 53.8739V19.6619C104.961 19.6619 104.961 18.121 103.425 18.3151" fill="#0099D9"/>
</g>
<path fill-rule="evenodd" clip-rule="evenodd" d="M27.8588 28.2981L22.094 29.0023C21.4278 29.084 21.0947 29.4564 21.0947 30.1197V50.3477C21.0947 51.011 21.4278 51.3018 22.094 51.2205L27.8588 50.5159C32.9236 49.8975 35.29 46.8886 35.29 40.953V36.0118C35.29 30.1092 32.9236 27.6797 27.8588 28.2981V28.2981ZM27.8588 31.6808C30.258 31.3874 31.3578 32.5795 31.3578 35.4641V42.4614C31.3578 45.3798 30.258 46.8407 27.8588 47.1333L24.8602 47.5V32.0471L27.8588 31.6808ZM52.5502 41.4968V36.9536C52.5502 36.2903 52.2171 36 51.5505 36.0812L46.7191 36.6716C46.0525 36.7533 45.7194 37.1249 45.7194 37.7882V39.1815C45.7194 39.8443 46.0525 40.1351 46.7191 40.0543L48.7181 39.8096V41.6334C48.7181 43.8551 47.6187 45.0508 45.7194 45.2831C43.3199 45.5761 42.2205 44.384 42.2205 41.466V33.8055C42.2205 30.9209 43.3199 29.46 45.7194 29.1665C47.6187 28.9342 48.7181 29.828 48.7181 32.0498C48.7181 32.7464 49.0847 33.0003 49.7509 32.9186L51.2505 32.7355C52.1505 32.6252 52.5502 32.1451 52.5502 31.2499C52.5502 27.2707 49.7174 25.2954 45.7194 25.7843C40.6538 26.4032 38.2883 29.4112 38.2883 35.3143V40.9517C38.2883 46.8539 40.6538 49.2843 45.7194 48.6654C49.7174 48.1765 52.5502 45.476 52.5502 41.4968V41.4968ZM55.3825 47.153L67.1787 45.7118C67.8449 45.6301 68.1784 45.2577 68.1784 44.5944V43.202C68.1784 42.5387 67.8449 42.2475 67.1787 42.3292L59.0809 43.3188L67.3455 26.7893C67.645 26.2222 67.8113 25.7707 67.8113 25.1742V24.4112C67.8113 23.7479 67.4783 23.4571 66.8121 23.5388L55.6821 24.8983C55.0159 24.98 54.6828 25.3521 54.6828 26.0153V27.4082C54.6828 28.071 55.0159 28.3623 55.6821 28.281L63.213 27.3608L54.9824 43.7198C54.516 44.6058 54.3824 44.8544 54.3824 45.5506V46.2802C54.3824 46.9435 54.7155 47.2343 55.3825 47.153V47.153Z" fill="#FEFEFE"/>
<path fill-rule="evenodd" clip-rule="evenodd" d="M98.19 38.3474C97.729 44.9142 92.0083 49.8654 85.4131 49.406C78.8175 48.9465 73.8446 43.2512 74.3061 36.6844C74.7671 30.118 80.4878 25.1672 87.083 25.6262C93.6786 26.0852 98.6511 31.7806 98.19 38.3474" fill="#FEFEFE"/>
<path fill-rule="evenodd" clip-rule="evenodd" d="M83.572 40.2079C83.572 40.2079 82.9058 40.5707 82.645 41.5608C82.3839 42.5509 81.9378 44.1564 81.9378 44.1564C81.9378 44.1564 81.5664 45.4249 82.7712 46.0372L84.0859 46.7119C84.0859 46.7119 85.0345 47.1209 85.09 46.4233C85.09 46.4233 85.2259 42.6994 84.588 40.583C84.588 40.583 84.4618 39.5723 83.572 40.2079" fill="#0099D9"/>
<path fill-rule="evenodd" clip-rule="evenodd" d="M88.6055 41.8722C88.4494 40.8598 87.8251 40.4297 87.8251 40.4297C87.0076 39.7054 86.776 40.6972 86.776 40.6972C85.9183 42.7354 85.6633 46.4532 85.6633 46.4532C85.6452 47.1529 86.6313 46.8446 86.6313 46.8446L88.0099 46.3104C89.2722 45.8273 89.0366 44.5271 89.0366 44.5271C89.0366 44.5271 88.7613 42.8843 88.6055 41.8722" fill="#0099D9"/>
<path fill-rule="evenodd" clip-rule="evenodd" d="M96.0232 34.5433C95.1387 34.4115 93.6263 34.9118 93.1913 35.1125C92.7554 35.3128 91.3816 36.0701 91.2784 35.7648C91.1756 35.4591 92.0324 34.0149 92.0324 34.0149C93.2068 32.4318 92.7109 32.1239 92.7109 32.1239C92.339 31.9912 91.7676 32.9541 91.7676 32.9541C90.6228 34.3105 90.389 35.4547 90.389 35.4547C90.3056 35.919 89.8463 36.1325 89.8463 36.1325L88.6344 36.6842C87.8465 37.0716 88.0635 37.1964 88.0635 37.1964C88.1738 37.7986 90.6193 37.0141 90.6193 37.0141C93.9947 39.1018 94.8929 38.3547 94.8929 38.3547C94.139 37.2825 91.9675 37.1107 91.9675 37.1107C90.9912 36.6372 91.9979 36.4347 91.9979 36.4347C93.6493 36.3104 95.391 35.4486 95.391 35.4486C96.5676 34.8859 96.0232 34.5433 96.0232 34.5433" fill="#0099D9"/>
<path fill-rule="evenodd" clip-rule="evenodd" d="M83.333 35.1414C82.1374 33.9511 80.9683 33.1679 79.6399 31.7535C78.5996 30.6483 78.4937 31.4688 78.6269 32.4484C78.8105 33.8079 79.1674 35.4687 80.0374 36.5853C82.0116 39.1083 85.0033 36.8036 83.333 35.1414" fill="#0099D9"/>
<path fill-rule="evenodd" clip-rule="evenodd" d="M80.4608 30.9356C81.8822 32.2586 82.6688 33.4231 83.864 34.613C85.5334 36.2756 87.8482 33.2966 85.3137 31.3314C84.1927 30.4652 82.5246 30.1098 81.1591 29.9271C80.1753 29.7944 79.3508 29.8994 80.4608 30.9356" fill="#0099D9"/>
</svg>
